<?xml version="1.0" encoding="utf-8"?>

<!DOCTYPE svg PUBLIC "-//W3C//DTD SVG 1.1//EN" "http://www.w3.org/Graphics/SVG/1.1/DTD/svg11.dtd">
<svg version="1.1" id="Layer_1" xmlns="http://www.w3.org/2000/svg" xmlns:xlink="http://www.w3.org/1999/xlink" x="0px" y="0px"
	 viewBox="275.3703 258.65 1550.6298 828.9293" enable-background="new 275.3703 258.65 1550.6298 828.9293" xml:space="preserve">
<g>
	<path d="M1110.1,362.8c-1.7899-1.27-3.41-2.8101-5.35-3.8201c-3.35-1.27-6.6801,0.51-9.7,1.76
		c-3.5801-1.12-7.3601-0.91-11.03-1.3301c-1.9514-0.1501-3.8483,0.7285-5.7429,1.2908c0.2217-1.011,0.2764-1.9862,0.1824-2.9154
		c0.6694,0.0311,1.3247-0.0619,1.9105-0.4453c0.65-1.2999,0.83-2.7699,1.22-4.17c0.66-0.7999,1.28-1.6299,1.85-2.5
		c-0.25-4.2799,3.2401-7.75,2.29-12.1399c1.97-2.77,0.84-6.42,1.15-9.5901c0.95-1.3099,1.89-2.6299,2.83-3.95
		c-0.14-0.65-0.4299-1.95-0.58-2.6c1.4399-0.7401,2.89-1.4801,4.34-2.2301c-0.75-0.7899-1.49-1.5699-2.22-2.3499
		c2.42-5.25,3.74-11.2101,3.09-16.9801c0.3201-0.41,0.9601-1.22,1.28-1.62c0.05-3.8899,1.17-8.11-1.17-11.58
		c-1.76-0.8-3.5-1.61-5.24-2.38c-4.24,0.46-8.5499,0.5601-12.6499,1.89c-0.4701,2.89-2.7301,4.65-5.1901,5.86
		c-0.0599,0.58-0.1801,1.75-0.24,2.33c-0.79,0.4601-1.5601,0.92-2.3199,1.39c-1.39,2.61-3.4301,4.8301-6.1801,6
		c0.8099,0.04,2.4301,0.12,3.24,0.15c-0.0599,0.51-0.1801,1.5299-0.24,2.0399c-2.8199-0.2899-3.21,2.4601-3.73,4.52
		c-1.49,0.8201-2.99,1.6201-4.48,2.42c0.1499,1.52,0.3099,3.04,0.46,4.58c-3.4,1.8-7.22,5.5701-4.7,9.65
		c-4.4801,2.38-2.7101,7.9901-3,12.08c-0.4,0.4501-1.2101,1.3601-1.6101,1.8101c0.8601,2.8201-1.47,4.5801-3.3099,6.24
		c0.08,1.8401,0.17,3.6801,0.35,5.53c-2.33,0.72-4.76,1.8301-7.24,1.11c-3.71-0.9-7.53-0.77-11.3-0.59
		c-2.95,2.1-5.13,5.09-5.9399,8.6399c3.4301,1.28,7.25,1.51,10.42,3.4501c2.7799,2.14,5.0199,5.0699,8.37,6.41
		c2.5599,1.01,4.96,2.37,7.24,3.9199c1.1,3.55-0.89,6.8701-1.05,10.3801c0.01,5.0898,6.96,6.74,6.3201,12.0599
		c3.5599,3.58,8.88,5.2001,11.33,9.89c7.73,2,16.33,2.08,23.77-1.1101c0.4099-1.3699,0.83-2.74,1.26-4.0999
		c-0.88-0.3901-1.75-0.78-2.6001-1.16c0.5601-1.25,1.13-2.5,1.7001-3.7401c-0.5601-0.2599-1.7001-0.7699-2.27-1.0299
		c0.45-2.35-0.5699-4.34-2.46-5.66c0.37-4.37,0.77-9.2-3.11-12.27c4.6499,0.4,9.24,1.39,13.7699,2.5601
		c3.42,2.52,7.5801,4.53,11.9401,4.1899c2.34-3.2,4.55-6.74,5.33-10.6799C1111.4,370.24,1110.25,366.55,1110.1,362.8z"/>
	<path d="M876.53,396.84c-1.26-0.7699-2.5-1.5599-3.71-2.36c-7.9712-1.2712-15.7433-3.5095-23.6616-4.9629
		c0.0898-1.2891-0.052-2.5938-0.4158-3.825c0.0659-0.0059,0.1309-0.0034,0.1973-0.0122c-0.4399-2.26-1.34-4.3999-1.8099-6.6399
		c0.7899-1.78,2.6801-2.99,2.9401-5c0.48-3.3101,1.7999-6.51,1.58-9.8901c0.96-1.9199,1.9401-3.8199,3.0699-5.6399
		c-0.08-0.6001-0.23-1.8201-0.3101-2.42c2.6401-3.0499,4.6301-6.5399,6.5801-10.0299c0.13-0.9701,0.27-1.92,0.4299-2.8701
		c2.2301-1.79,3.2001-4.34,3-7.1599c4.24-3.39,6.6702-8.3401,8.76-13.22c-1.3099-1.3701-2.46-2.9401-4.1399-3.8501
		c-3-1.84-6.26,0.74-9.3701,0.97c-0.2699,0.4401-0.8099,1.3101-1.0798,1.75c-3.02,0.5801-6.28,1.1001-8.3801,3.5901
		c-1.52,1.8-3.9399,1.9099-5.99,2.6799c-4.7,5.13-10.6799,8.8301-15.85,13.4301c-1.66,2.01-3.2001,4.16-5.51,5.47
		c-1.2999,1.84-2.72,3.59-4.2799,5.2101c-1.99,4.0898-2.77,8.6299-2.4001,13.1699c3.0701,1.46,0.76,3.65-1.26,4.5601
		c-0.3799,2.49-0.6399,4.99-0.5499,7.52c-1.62,0.51-3.17,1.1699-4.5699,2.1299c-2.48,0.78-5.0701,1.64-7.7001,1.2001
		c-3.8199-0.62-7.66,0.0599-11.48,0.24c-0.4401,0.83-0.88,1.67-1.2999,2.51c-0.9501,0.42-1.8901,0.85-2.8201,1.2799
		c-0.11,0.49-0.3101,1.49-0.4199,1.98c2.1699,1.0801,4.3799,2.2001,6.8298,2.53c3.5801,0.41,6.1802,3.1801,9.4102,4.52
		c3.8099,1.92,8.3699,2.3701,11.75,5.1201c4.47,4.9099,8.5599,10.3899,14.22,14.0299c0.46,0.76,0.9299,1.53,1.4199,2.3099
		C834.79,418.72,839.0901,423.38,844.65,426.3c4.59,2.26,9.0299,4.83,13.2699,7.71c1.49,0.2,2.9701,0.3899,4.49,0.59
		c-0.3599-0.92-0.7599-1.8099-1.21-2.66c-4.0499-4.71-8.35-9.78-9.6199-16.03c-0.4601-4.3699-4.5801-7.58-3.3101-12.23
		c1.96,0.1901,4.1399-0.09,5.8999,1.03c6.49,3.75,13.8101,6.79,21.4701,6.2C878.4399,406.6799,878.4399,401.4199,876.53,396.84z"/>
	<path d="M638.69,495.95c0.54-0.55,1.63-1.66,2.18-2.21c-2.23-3.73-4.09-7.66-5.35-11.81c-3.58-1.07-7.41-1.14-10.97,0.02
		c-0.29,0.73-0.87,2.19-1.16,2.92c-3.819,1.4937-8.0742,0.8903-11.9352,1.9018c-0.3226-0.82-0.7529-1.5905-1.2908-2.2855
		c0.0522-0.0147,0.1038-0.0317,0.156-0.0463c0.43-0.91,0.86-1.82,1.3-2.72c-0.2-1.02-0.39-2.05-0.57-3.07
		c-0.48-0.27-1.45-0.8299-1.94-1.1099c0.03-2.75,0.11-5.48,0.25-8.22c-0.59-1.28-1.08-2.6001-1.48-3.9401
		c-0.5,0.01-1.48,0.01-1.97,0.0199c-0.27-2.9199-0.24-6.1799-3.42-7.45c0.02-2.3099,0.95-5.02-1.09-6.74
		c-0.08-1.52-0.15-3.03-0.21-4.54c-0.53-0.2899-1.57-0.8599-2.09-1.1499c0.04-0.71,0.1-2.13,0.13-2.8501
		c-0.98-0.52-1.96-1.0299-2.92-1.5399c-0.1-1.39-0.17-2.77-0.26-4.15c-1.64-2.12-2.78-4.54-3.69-7.04
		c-4.03-2.6499-5.52-7.4099-7.88-11.36c-1.1-1.96-3.31-3.0499-4.16-5.15c-0.59-1.58-2.19-2.3199-3.45-3.26
		c-0.05-1.1699-0.1-2.33-0.13-3.49c-4.5-2.4399-10-2.0599-14.18,0.8101c-0.62,1.23-1.27,2.45-1.96,3.65
		c-0.72,6.25-0.05,12.5699-0.37,18.86c-0.39,3.27,0.76,6.35,1.59,9.45c1.26,9.14,2.84,18.3301,6.29,26.9401
		c0.7,0.4399,1.42,0.88,2.14,1.33c2.16,3.13,4.43,6.4399,4.16,10.45c0.6801,0.35,2.04,1.06,2.72,1.41
		c-2.22,1.51-4.37,3.28-7.02,3.95c-6.02,1.83-12.45-0.48-18.43,1.55c-1.5,2.44-4.47,4.19-4.52,7.3101
		c3.42,1.2599,7.05,1.65,10.6,2.36c6.16,2.68,11.97,6.09,18.01,9.02c0.57,2.57-0.87,4.3-3.26,5.03c-0.09,0.49-0.28,1.46-0.38,1.95
		c0.42,0.37,1.26,1.11,1.68,1.49c-0.05,0.49-0.14,1.49-0.19,1.99c-0.5-0.03-1.52-0.09-2.02-0.12c-3.14,6.39-5.86,13.08-6.92,20.16
		c-1.92,8.04-4.49,16.05-4.47,24.41c-2.4,6.17-1.26,12.87-1.46,19.33c-0.69,4.9,4.91,8.23,9.23,7.9c4.78,0.46,8.57-2.81,12.89-4.19
		c-0.12-0.66-0.36-1.96-0.48-2.61c3.29-3.03,5.53-7.09,9.26-9.65c0.18-0.45,0.52-1.36,0.69-1.82c1.11-0.33,2.19-0.75,3.25-1.25
		c-1.04-2.95,1.59-7.09-1.77-8.86c1.26-0.32,2.53-0.65,3.8-0.96c1.81-2.82,1.25-7.15,4.91-8.49c0.85-2.58,1.29-5.28,2.0099-7.89
		c0.52-1.51,2.03-2.45,2.44-4c0.25-2.1,0.18-4.22,0.4-6.31c1.12-0.6,2.42-0.71,3.65-1.01c0.3-3.29,0.8199-6.58,0.52-9.88
		c0.45-3.72-0.94-7.27-1.6-10.86c1.98,0.06,4.02-0.12,5.98,0.33c2.37,1.2401,4.32,3.1801,6.82,4.23c3.44,1.42,5.53,4.87,9.04,6.18
		c2.17,0.9,4.55,0.92,6.87,0.88c-0.11-2.92-0.5-5.93,0.78-8.66c2.17-1.44,2.5-3.76,2.32-6.17
		C639.74,501.88,642.68,497.57,638.69,495.95z"/>
	<path d="M401.3,447.4c0.29-1.6-0.88-4.06,0.76-5.02c13.02-0.86,24.11,7.35,36.29,10.43c4.77,0.03,9.37,1.73,12.54,5.38
		c-0.09,0.56-0.27,1.67-0.36,2.23c-2.35-0.25-4.65-0.81-6.77-1.86c-2.61,0.06-5.22,0.14-7.83,0.35c1.17,3.58,6.11,5.71,4.31,9.94
		c8.27,4.03,17.65,1.31,26.4,2.62c0.94,0.35,1.87,0.74,2.79,1.17c0.78,2.35,1.16,5.92,4.44,5.87c0.45,1.87,0.81,3.77,1.1,5.69
		c-0.91,0.39-1.81,0.78-2.7,1.19c0.52,1.4,1.04,2.81,1.55,4.23c-8.02,1.58-15.42-2.13-22.9-4.27c-3.53-0.48-7.11-0.13-10.65-0.01
		c0.07,2.66,0.2,5.33,0.29,8c-0.65,0.27-1.93,0.82-2.58,1.09c0.06,3.42,0.7,6.87,3.04,9.51c0.11,1.01,0.22,2.02,0.34,3.04
		c0.42,0.45,1.26,1.34,1.67,1.79c0.29,6.22,2.86,12.02,6.22,17.12c0.06,4.8,0.59,9.86-0.72,14.54c-3.77,0-6.86-2.17-9.84-4.19
		c-0.25-0.45-0.75-1.36-1-1.82c-2.65-1.62-5.28-3.33-7.4-5.63c-2.88-3.18-6.82-5.18-9.51-8.54c-3.47-4.2-6.57-8.71-10.49-12.51
		c-1.89-1.81-2.14-4.51-2.79-6.9c-3.25-1.12-4.53-4.28-5.92-7.11c0.39-2.44,0.59-4.91,0.69-7.37c1.6-0.81,3.22-1.6,4.84-2.39
		c-2.63-2.02-4.89-4.65-8.09-5.77c-5.05-1.85-9.19-5.41-14.09-7.56c-3.32-1.08-6.83-1.43-10.31-1.54c-0.49-0.93-0.98-1.85-1.46-2.77
		c0.54-0.24,1.62-0.72,2.16-0.96c0.75-1.5,1.52-2.99,2.28-4.47c4.41-0.86,8.98-1.14,13.42-0.31c2.83,0.55,5.76,0.92,8.64,0.42
		c2.23-0.51,3.72-2.43,5.48-3.74c-0.55-2.05-1.86-3.71-3.17-5.32c1.27-0.86,1.88-2.18,2.17-3.62
		C403.43,448.09,402.01,447.63,401.3,447.4z"/>
	<path d="M1594.9301,580.92c-1.2101-1.53-1.78-3.34-1.9601-5.23c-3.03-3.28-9.61-4.75-11.75,0.24c-4.27,1.27-8.5699,2.85-13.1,2.65
		c0.1047,0.549,0.1576,1.072,0.1405,1.5445c-0.2617-0.7468-0.6143-1.4562-1.049-2.1122c0.1495-0.0093,0.2991-0.0104,0.4485-0.0223
		c-0.5601-2.45-0.87-4.95-1.05-7.44c-0.99-0.99-2.54-1.92-2.11-3.55c0.41-3.62-0.38-7.19-0.87-10.75
		c-0.52-0.26-1.5699-0.77-2.1-1.02c0.02-2.12-0.1801-4.22-0.51-6.3c-0.73-1.18-1.91-2.31-1.49-3.82
		c0.8199-5.6-2.73-10.58-2.54-16.14c-2.4299-2.31-0.4-6.14-3.39-8.12c-0.63-4.47-3.72-7.88-6.0399-11.54
		c-0.55-0.29-1.65-0.87-2.2001-1.16c0.64-4.7599-2.04-8.65-4.99-12.02c-0.6801,0.03-2.02,0.07-2.6899,0.1
		c-0.55-0.99-1.0701-1.97-1.5701-2.95c-1.49,0.36-2.96,0.71-4.41,1.07c-1.0399,0.9-2.09,1.78-3.11,2.67
		c-0.7,3.75-3.4199,7.21-1.9199,11.14c-2.4301,4.97-2.62,10.47-2.63,15.88c-1.65,7.93,1.59,15.98-0.5801,23.88
		c0.37,0.47,1.1001,1.39,1.4701,1.86c0.97,4.62,2.9399,8.98,3.86,13.62c0.47,2.33,0.1699,4.91,1.72,6.92
		c-0.21,0.96-0.4,1.92-0.58,2.89c-0.9901,0.95-1.9401,1.93-2.89,2.9c-1.28,0.94-2.3501,2.1-2.62,3.73
		c-3.87,0.05-7.7301-0.15-11.5701,0.04c-2.24-0.01-3.22,2.42-4.4399,3.89c-0.54,0.23-1.63,0.7-2.17,0.94
		c0.21,0.75,0.4301,1.5099,0.67,2.28c5.23,0.61,10.1799,2.46,14.96,4.63c2.66,1.53,5.35,3.14,8.38,3.87
		c0.71,1.03,1.63,2.11,1.28,3.5c-0.3401,3.07,0.15,6.13,0.76,9.14c-0.4301,0.46-1.3,1.37-1.73,1.83
		c0.1699,2.39-0.1101,4.77-0.5601,7.13c-3.98,5.69-0.9301,12.94-0.77,19.27c-0.04,5.53,1.97,10.77,2.3101,16.25
		c1.5599,2.06,0.33,4.91,2.12,6.87c-0.0601,0.63-0.17,1.87-0.23,2.49c1.5299,0.8101,2.86,1.82,2.1699,3.84
		c0.4,0.22,1.2001,0.66,1.6,0.88c-0.0299,1.57-0.0699,3.13-0.0599,4.72c2.6799,0.88,4.98,2.54,7.16,4.31
		c2.23-0.87,4.5-1.73,6.4099-3.23c0.5601,0.12,1.67,0.36,2.23,0.48c-0.11-0.67-0.34-2.03-0.46-2.71c1.91-3.5,4.9401-7.14,4.02-11.39
		c1.91-1.91,4.97-3.22,5.4301-6.17c0.7999-4.56,0.84-9.34,2.7999-13.62c-0.4-0.31-1.1799-0.93-1.5699-1.23
		c0.4199-2.59,0.9-5.17,1.4099-7.73c-0.35-2.48-0.0099-4.96,0.3401-7.41c0.47-0.43,1.4099-1.29,1.88-1.72
		c-0.26-7.09-0.3401-14.17-0.4501-21.25c4.26-1.14,7.41,2.33,10.98,3.97c4.42,2.17,8.2001,6.72,13.4901,6.44
		c2.7599-0.71,2.22-3.98,2.5599-6.13c0.14-2.75,2.8101-4.24,4.22-6.35C1598.66,591.85,1595.76,586.54,1594.9301,580.92z"/>
	<path d="M387.67,509.42c4.82-0.13,9.3,2.07,12.65,5.43c1.12,1.72,0.72,4.01,1.85,5.76c1.04,1.76,1.66,3.71,1.85,5.76
		c0.81,0.48,1.63,0.97,2.45,1.46c-0.71,2.33,0.49,4.06,2.34,5.39c-1.13,3.73-2.09,7.59-0.97,11.47c1.56-0.14,3.12-0.29,4.69-0.39
		c-0.91,2.92,0.3,5.56,2.06,7.84c-0.32,1.68-0.63,3.37-0.94,5.06c4.41,3.16,9.51,5.2,14.71,6.67c6.58,1.4,13.46,1.85,19.64,4.74
		c2.18,0.88,1.7,3.46,2.03,5.33c-3.89,3.32-9.65,2.08-13.99,0.34c-4.01-0.8-7.95-1.88-11.95-2.6801c-3.97-0.04-7.94,0.44-11.91,0.2
		c0.18,1.57,0.38,3.13,0.61,4.71c-0.44,0.29-1.33,0.87-1.78,1.16c-0.08,2.46-1.07,4.69-2.49,6.67c-0.14,3.23-1.66,6.16-2.46,9.2599
		c-1.6,0.55-3.13-0.0699-4.59-0.68c0,1.46-0.05,2.93-0.12,4.4c2.24,0.96,1.31,2.6-0.33,3.62c0.22,0.8,0.67,2.38,0.89,3.17
		c-1.19,3.9-3.84,7.09-5.71,10.66c-0.72,0.01-2.16,0.04-2.88,0.05c0.01,0.42,0.04,1.24,0.05,1.66c0.92,1.19,1.42,2.58,1.28,4.11
		c-2.06,0.24-4.11,0.52-6.16,0.83c-1.49-0.12-2.97-0.23-4.45-0.32c0.52,0.9901,1.04,1.9901,1.57,3c4.79,0.9,9.67,0.12,14.47,0.89
		c7.36,1.11,14.8,1.67,22.15,2.96c0.85,0.98,1.77,1.91,2.51,2.99c0.64,2.16-1.06,3.99-1.84,5.85c0.74,0.01,2.22,0.02,2.97,0.03
		c-0.5,1.21-1.01,2.42-1.5,3.65c-2.4,0.6801-4.8,2.04-7.36,1.47c-4.33-0.8-8.76-0.87-13.03-1.99c-5.03-1.29-10.26-0.68-15.39-0.74
		c-0.1,0.95-0.18,1.9-0.26,2.87c1.15,0.76,2.83,1.27,3.04,2.91c-0.21,1.73-2,2.2-3.23,3c0.34,1.08,0.71,2.14,1.13,3.2
		c0.16,0.91,0.47,2.73,0.63,3.64c-0.7,0-2.09,0-2.78,0c0.22,1.73,0.47,3.46,0.73,5.19c-0.68-0.19-2.05-0.56-2.73-0.75
		c0.05,5.31,0.43,10.67-0.58,15.92c-0.4,1.83,0.13,3.67,0.38,5.49c-0.69,0.15-2.06,0.44-2.74,0.59c-0.78,3.14-1.35,7.21,2.25,8.85
		c-0.44,1.63-1.17,3.16-2.41,4.35c-0.68-0.95-1.35-1.9-2.01-2.85c0.61,3.38,0.52,6.83,0.82,10.25c-0.94-0.02-2.81-0.05-3.74-0.07
		c0.25,2.99,1.84,5.59,2.86,8.36c-1.44-0.48-2.88-0.95-4.31-1.41c-0.33,0.68-0.97,2.04-1.3,2.72c-0.99,0.27-1.98,0.55-2.97,0.84
		c-0.29,0.5-0.85,1.49-1.14,1.98c-1.25-0.91-2.5-1.82-3.75-2.71c-0.95-1.24-1.92-2.46-2.88-3.67c-0.82-2.66-2.13-5.16-4.17-7.08
		c-0.15-0.96-0.29-1.91-0.43-2.85c-1.19-1.52-1.83-3.3-2.09-5.19c-0.31-0.46-0.92-1.39-1.23-1.86c-0.62-1.45-1.34-2.85-2.17-4.17
		c-0.19-0.95-0.37-1.88-0.55-2.81c-1.6-2.93-3.21-5.85-4.57-8.89c-0.32-2.99-0.05-6.15-1.69-8.82c-3.03-6.15-1.29-13.79,3.76-18.33
		c0.27-4.23,4.32-6.99,3.51-11.47c-5.3-2.67-10.9-4.71-16.15-7.5c-4.09-1.2-8.45-1.34-12.67-1.91c-0.37-5.04,4.31-8.66,8.76-9.7
		c4.77,2,10.06,1.81,15.11,1.23c2.81-3.56,3.34-8.58,5.64-12.56c-1.63-2.87-3.09-6.06-5.94-7.93c-0.43-1.71-0.38-3.46-0.08-5.17
		c-0.16-0.64-0.47-1.92-0.63-2.56c0.56-0.08,1.69-0.25,2.25-0.33c-0.13-0.54-0.4-1.61-0.53-2.14c1.65-2.35,2.8-5.65,5.9-6.37
		c0.32-0.96,0.64-1.92,0.96-2.86c4-0.8,6.21-4.6,9.84-6.15c1.96-0.7,2.48-2.78,3.09-4.53c3.42-0.08,6.92,0.36,10.25-0.7
		c-4.14-2.83-8.18-5.98-12.94-7.7c-3.26-1.04-6.69-1.49-9.88-2.79c0.57-4.32,4.01-9.27,8.86-8.46c4.01,1.79,8.5,2.47,12.87,1.99
		c2.31-0.29,5.07-2.3,3.98-4.91c-2.14-3.66-7.23-4.98-8.37-9.27c-0.84-1.76,0.96-2.93,1.81-4.15c0.01-0.58,0.04-1.75,0.05-2.33
		c1.15-1,2.29-2.01,3.44-3.01c-0.42-2.42,0.5-4.5,2.75-5.56c1.12-2.33,2.25-4.65,3.42-6.95
		C386.49,512.59,387.13,511.03,387.67,509.42z"/>
	<path d="M1275.63,509.84c3.27-1.39,5.87,1.23,9.03,1.59c0.2799,0.99,0.58,2,0.9,3.01c1.0399,0.3,2.1,0.61,3.1799,0.93
		c1.14,3.97,2.79,7.82,3.28,11.97c0.41,0.2599,1.25,0.78,1.6699,1.04c1.6901,5.22,0.92,10.69,0.54,16.05
		c4.4401,2.78,3.34,8.25,3.39,12.66c-1.78,0.5699-6.34-1.01-5.23,2.31c7.61,0.29,14.91,3.16,22.59,2.41c3.36-0.44,6.35,1.2,9.17,2.8
		c0.0399,0.58,0.13,1.76,0.1699,2.35c1.03,0.97,2.1001,1.97,3.16,2.97c-0.12,2.43,0.23,4.83,1.22,7.07
		c-1.24,0.1-2.38,0.42-3.4299,0.97c0.14,0.94,0.4299,2.82,0.5699,3.76c-7.2799,2.17-14.0499-2.22-20.33-5.25
		c-3.61-2.08-8.09-3.63-12.16-2.2c-2.1699,0.66-0.46,2.9-0.2899,4.3799c1.96,4.4901-0.9901,9.05-0.41,13.67
		c-1.12,1.2-2.2001,2.42-3.24,3.67c-0.61,3.65-1.3301,7.28-1.39,11c-2.46,3.63-2.47,8.26-4.35,12.19
		c-0.6901,4.59-2.5901,9.06-6.37,11.94c-0.0801,1.76-0.12,3.53-0.12,5.31c-0.9401,0.28-1.8601,0.57-2.77,0.87
		c0.37,3.81-3.1801,5.56-5.75,7.48c-0.66-0.11-2-0.32-2.66-0.43c-0.46,0.49-1.39,1.48-1.85,1.97c-4.6801,0.55-7.92-3.88-7.9-8.19
		c-1.48-2.04-2.33-4.39-1.97-6.93c-0.99-1.82-0.5-3.6,0.34-5.33c-0.8-7.27-2.6801-14.61-1.08-21.93
		c0.0399-6.13,0.9099-12.18,1.34-18.28c0.48-0.27,1.4399-0.81,1.92-1.07c0.0399-0.66,0.11-1.97,0.1399-2.63
		c2.6901-2.99,3.39-6.99,4.7401-10.64c-4.03-2.16-8.5601-3.61-11.8601-6.9c-0.97-0.15-1.9099-0.3-2.83-0.44
		c-2.59-2.24-6.47-1.36-8.86-3.95c2.15-2.11,3.16-6.21,6.84-5.84c4.4601,0.09,8.9301-0.14,13.3-1.18
		c0.45-0.43,1.35-1.29,1.7999-1.72c0.67-0.03,2-0.08,2.67-0.11c-0.4299-3.46,0.13-7.14-1.38-10.37c-1.03-2.12-1.64-4.39-2.09-6.69
		c0.5499-0.18,1.65-0.55,2.2-0.73c0.28-1.03,0.5701-2.05,0.88-3.06c0.38-0.2401,1.15-0.73,1.54-0.97c0.37-3.4,3.1-5.52,4.83-8.2
		c1.17-3,2.62-5.96,5.1801-8.02C1274.46,512.04,1275.05,510.94,1275.63,509.84z"/>
	<path d="M477.78,535.59c2.16-0.3,4.35,0.14,6.52,0.3c0.26,0.38,0.8,1.15,1.07,1.54c1.33,0.6,2.61,1.3,3.87,2.08
		c0.72,0.12,2.16,0.37,2.89,0.5c-0.63,0.5-1.25,1-1.87,1.52c2.76,3.68,4.21,8.11,5.25,12.54c0.91,2.28,2.61,4.38,2.08,7
		c0.46,0.46,1.36,1.39,1.81,1.85c-0.27,1.87,0.31,3.56,1.51,5.01c1.33,4.34,1.19,8.9,2.75,13.17c0.26,1.27-1.62,1.65-2.32,2.4901
		c1.14,4.14,3.95,7.94,3.49,12.41c-0.31,3.33-0.16,6.81-1.37,9.98c-1.18,2.86-4.4,1.43-6.64,1.21c0.07,4.04,4.21,5.67,7.49,6.71
		c6,1.19,11.72,3.52,17.79,4.45c2.65,0.32,4.85,1.88,7.01,3.34c-0.08,3,0.43,5.98,1.43,8.83c-0.58,1.65-1.14,3.33-1.62,5.03
		c-1.62,0.73-3.43,1.89-5.18,0.82c-8.62-3.77-16.3-11.54-26.33-10.61c-0.89,4.01,3.26,7.92-0.04,11.39
		c0.19,0.52,0.58,1.55,0.78,2.0699c-1.34,1.98-1.27,4.4-1.7,6.67c-0.78,2.02-2.18,3.72-3.33,5.54c-1.54,0.54-3.08,1.1-4.6,1.69
		c1.02,0.36,2.05,0.72,3.08,1.09c-0.02,2-0.03,4.02-0.06,6.04c-0.67,0.03-2,0.09-2.67,0.13c-0.05,1.81-0.12,3.63-0.21,5.46
		c-1.24,1.3799-2.41,2.8199-3.52,4.31c-1.66,0.0099-3.32,0-4.96,0.0099c0.32,2.77,0.51,5.58,1.23,8.3c0.54,0.14,1.62,0.42,2.16,0.56
		c0.04,1.65,0.26,3.32,0.04,4.99c-1.08,1.25-3.07,0.57-4.52,0.97c0.37,0.87,0.1,2.26,1.2,2.66c3.89,2.1,8.37,2.68,12.58,3.89
		c3,1.02,6.15,0.27,9.22,0.5099c2.2,0.48,4.27,1.41,6.43,2.05c1.27,2.08,1.8,4.45,1.91,6.87c1.38,1.57,2.78,3.13,4.3,4.58
		c-1.96,2.5-3.98,6.02-7.73,5.35c-10.1-0.93-18.18-9.54-28.71-8.6c-3.54,1.93-0.92,6.39-0.25,9.26c-0.43,0.11-1.28,0.33-1.71,0.44
		c0.21,0.88,0.64,2.64,0.85,3.52c-1.53,0.15-2.91,0.69-3.74,2.04l3.01-0.25c-0.62,0.92-1.87,2.75-2.49,3.66
		c-0.98-0.67-1.94-1.34-2.9-2.01c0.15,1.7,0.78,3.44,0.45,5.18c-1.05,0.95-2.26,1.7-3.42,2.52c0.22,0.63,0.65,1.89,0.87,2.53
		c-1.87,2.68-4.29,5.26-4.42,8.73c-0.77-0.15-2.32-0.47-3.1-0.62c0.95,4.19,0.11,8.9901-3.88,11.3c-0.46,2.48-3.1,3.0699-4.94,4.25
		c-0.73,2.45-2,4.68-3.39,6.81c-0.39,1.52-2.16,0.69-3.23,0.97c-0.44,0.33-1.32,0.98-1.75,1.3c-5.75,2-11.98,2.83-17.81,0.64
		c0.38-3.53-0.34-7.17,0.71-10.61c1.18-3.27,0.05-6.68,0.02-10.01c-0.41-3.78,2.56-7.11,1.46-10.91
		c-0.99-2.82,0.87-5.3101,1.04-8.04c-0.35-5.33,2.71-10.1,2.67-15.42c3.21-0.62,4.06-4.01,5.41-6.51c1.03-2.28,3.75-2.58,5.88-3.16
		c0.06-0.45,0.17-1.33,0.22-1.77c-3.91-3.42-8.24-6.43-12.94-8.66c-4.19-2.18-9.37-0.22-13.28-3.17c1.25-2.5,2.89-4.86,5.6-5.89
		c0.36-0.2,1.07-0.62,1.42-0.8199c7.38-0.32,14.77,1.48,22.14,0.22c0.32-0.79,0.95-2.35,1.27-3.13c-3.05-1.13-5.62-3.17-7.94-5.39
		c1.44-1.54,2.87-3.08,4.36-4.57c0-0.46-0.01-1.4-0.01-1.86c3.65-1.11,4.74-5.41,8.32-6.46c0.04-1.16,0.09-2.3,0.15-3.44
		c1.4-1.44,2-3.22,1.6-5.21c0.47-0.21,1.39-0.62,1.85-0.83c-0.42-4.26,0.98-8.42,3.46-11.84c0.39-1.47,0.82-2.92,1.48-4.28
		c0.6-2.45,1.29-5.03,3.51-6.52c-0.01-0.65-0.04-1.94-0.05-2.58c0.62-0.35,1.87-1.04,2.5-1.39c-0.86-1.31-1.46-2.9-2.97-3.59
		c-3.76-2.21-6.69-5.62-10.68-7.45c-2.35-1.43-5.17-0.87-7.74-1.35c-1.47-0.72-2.54-2.03-3.77-3.07c1.69-1.5,3.02-3.35,4.06-5.36
		c4.32-0.82,8.52,1.1,12.85,0.57c3.38-0.26,6.78-0.27,10.17-0.34c0.2-5.96,0.71-12.2599-1.89-17.8c-0.04-3.99,0.39-7.99,0.08-11.97
		c-0.29-1.19,0.52-2.16,0.93-3.18c0.43-6.01,2.61-11.58,4.06-17.36c0.66-1.64,1.89-2.99,2.52-4.6299
		C475.32,541.58,474.9,537.8,477.78,535.59z"/>
	<path d="M912.2,658.37c-0.6799,0.1-2.04,0.31-2.72,0.42c-0.01-1.68,0.15-3.34,0.03-5c-2.27-0.21-4.47-0.69-6.54-1.62
		c-3.55-1.56-7.51-0.64-11.21-1.42c-5-1.04-10.16-1.32-15.02-2.97c-0.915-0.2806-1.8418-0.4459-2.7751-0.5433
		c0.1405-1.4396-0.0056-2.9089-0.4341-4.2805c0.8064-0.2771,1.6128-0.5492,2.4192-0.8262c-0.1599-1.72-0.34-3.43-0.5499-5.13
		c0.23-2.07-0.02-4.27,1.0099-6.16c-0.9399-2.14-0.46-4.6201-1.5499-6.66c1.5599,0.44,0.99,2.48,1.8099,3.52
		c0.6101-0.85,1.1901-1.72,1.8201-2.55l-1.22,0.37c-0.26-4.05-0.99-8.06-0.72-12.13c-0.3901-0.63-1.16-1.91-1.55-2.54
		c0.88-0.58,2.74-1.94,1.28-3.0099c-1.24-1.23-2.6201-2.3-3.9301-3.44c1.03,0.12,3.09,0.36,4.12,0.48
		c0.1201-1.62,0.22-3.23,0.3-4.84c-1.8301-0.13-3.52-0.57-3.78-2.65c0.91-0.87,1.87-1.7,2.72-2.63
		c-0.1899-1.22-1.5599-1.54-2.35-2.23c-0.1-0.55-0.3099-1.65-0.42-2.2c0.54,0.08,1.6201,0.26,2.16,0.34
		c0.1-0.57,0.3099-1.7,0.41-2.27c-1.8501-2.48-0.75-5.9-2.74-8.29c-0.9399-1.26-0.95-2.88-1.22-4.34
		c-2.4401-1.58-0.65-3.95,0.1599-5.9c-0.1399-1.5-0.3899-2.97-0.75-4.41c0.5-0.13,1.49-0.38,1.99-0.5
		c-0.9199-2.4-2.5599-4.35-4.78-5.64c0.01-0.66,0.03-1.98,0.04-2.64c-0.85-0.46-1.7-0.92-2.53-1.36
		c-0.4399-0.79-0.8699-1.58-1.2899-2.36c-2.79-0.55-5.6901-1.67-8.53-0.94c-2.66,1.34-2.91,4.88-5.1,6.79
		c-2.23,2.03-2.26,5.14-3.1699,7.81c-1.2101,2.88-3.1501,5.41-4.2001,8.37c-0.4501,2.63,0.13,5.56-1.33,7.95
		c-1.79,3.54-4.8301,6.78-4.77,10.98c0.11,2.7-0.1101,5.41-0.98,7.99c-1.3401,3.94-0.22,8.15-0.8401,12.2
		c-0.5601,3.97,1.54,7.87,0.48,11.84c-0.8999,3.62-1.53,8.14,1.72,10.83c-1.51,1.79-2.5299,4.37-4.8199,5.27
		c-5.2899,0.36-10.6-0.06-15.89,0.2c-1.96,2.4-4.3799,4.72-4.85,7.94c5.58,0.28,11.0699,1.87,15.8099,4.88
		c3.4102,2.28,7.5901,2.93,10.9701,5.3c-0.09,1.19-0.16,2.39-0.2301,3.6c-4.6299-0.4399-3.0898,5.2401-3.1399,8.08
		c0.46,0.46,1.36,1.38,1.8201,1.84c0.8999,6.4,4.7599,11.89,9.3599,16.25c1.99,0.04,3.98,0.13,5.98,0.27
		c6.99-1.99,14.1901-3.3799,20.6801-6.79c-0.35-2.97,1.2999-5.45,3.33-7.42c-1.1199-3.05,1.3401-5.53,2.1201-8.29
		c-0.24-1.84-2.4501-2.42-3.66-3.48c0.14-0.56,0.4301-1.66,0.58-2.21c3.3101,0,6.74-0.46,9.98,0.55
		c8.05,2.71,16.7,2.39,25.0901,2.41c-0.26-0.77-0.79-2.3-1.05-3.07c0.6,0.15,1.8101,0.45,2.4199,0.61
		C912.1699,661.26,912.1799,659.81,912.2,658.37z"/>
	<path d="M1019.7,813.16c-8.78-2.16-17.8899-0.7-26.74,0.01c-2.1553-0.1625-4.6039,0.5287-6.9216,0.7717
		c-0.1685-1.0063-0.4865-1.9802-0.939-2.8828c1.4756-0.1049,2.9502-0.2284,4.4207-0.4089c0.11-2.95,0.35-6.09-1.88-8.39
		c-0.5499-0.23-1.64-0.69-2.1901-0.92c-1.0499-3.8-1.8999-7.9301-0.1799-11.67c0.36-2.82-0.64-5.71-0.6799-8.56
		c-1.0701-1.24-2.1201-2.47-3.1702-3.7c1.3201,0.13,2.6602,0.25,4.01,0.3701c-0.83-0.97-1.6799-1.89-2.5399-2.8
		c-0.2301-0.76-0.7101-2.28-0.9401-3.04c1.21-0.79,2.48-2.02,1.71-3.6c-1.1299-3.17-3.98-5.2-6.5798-7.1
		c0.71-0.61,2.1299-1.84,2.8398-2.45c-1.47-0.47-2.9299-0.92-4.3799-1.36c-0.3601-1.23-0.71-2.44-1.04-3.65
		c-1.9099,0.8799-4.21,1.25-5.62,2.9399c-2.6901,3.28-6.53,5.36-8.84,8.9901c-0.5901,0.04-1.78,0.11-2.3701,0.15
		c-1.3499,2.59-2.5499,5.91-5.9099,6.28c-1.1001,1.32-2.1899,2.65-3.28,3.97c0.01,0.47,0.04,1.42,0.05,1.9
		c-1.46,0.98-3.27,1.99-3.3401,3.99c-0.22,4,2.1501,7.49,3.77,10.98c-0.51,1.06-1.01,2.14-1.49,3.23c0.66,2.28,0.63,4.66-0.09,6.93
		c0.88,0.49,1.76,0.99,2.66,1.5c-2.03,0.95-3.98,2.09-6.01,3.03c-3.51,0.47-7.0901-0.2-10.5701,0.5c-2.6299,0.54-5.3,0.73-7.96,0.69
		c-0.21,0.87-0.4199,1.76-0.6,2.66c-0.5599,0.3-1.6801,0.88-2.2401,1.18c-0.24,1.82-0.3899,3.66-0.48,5.51
		c4.9701-0.29,10.2101-0.37,14.5701,2.43c4.3301,3.1,9.36,4.86,14.12,7.15c-0.66,4.43-4.39,8.08-3.3199,12.79
		c-1,1.61-1.76,3.34-2.3801,5.13c0.4401,0.52,1.3101,1.56,1.75,2.08c-0.5399,0.5-1.6199,1.52-2.1599,2.02
		c-0.12,2.98,0.22,6,1.8999,8.55c2.6501,4.04,1.4001,9.05,2.78,13.47c1.1901,1.8,2.2001,3.72,3.3101,5.59
		c-0.13,0.68-0.37,2.02-0.49,2.7c0.4299,1.55,0.86,3.1,1.3201,4.67c2.3899,3.98,3.5499,8.57,5.99,12.54
		c1.4399,2.32,2.52,4.87,2.99,7.59c1.5499,1.64,2.99,3.38,4.2899,5.26c2.1-0.03,4.25,0.18,6.35-0.22
		c1.5801-0.64,0.5801-2.73,1.03-3.92c1.29,0.04,2.5901,0.08,3.9,0.14c0.02-1.8,0.0399-3.6,0.11-5.38
		c0.3301-0.34,0.99-1.03,1.3201-1.38c-0.05-6.53,1.84-12.9,1.9399-19.4c2.74-4.18-1.05-9.56,1.4-13.97
		c2.25-4.57,0.89-9.63,0.16-14.37c1.01-0.85,2.52-1.42,2.8699-2.84c1.5701-3.82,2.23-7.92,1.8601-12.03
		c-1.7-1.04-1.64-3.01-1.8401-4.72c11.66-2.1801,21.8601,5.75,33.27,5.79c0.8401-2,1.6801-4,2.39-6.06c0.8199-0.51,1.66-1,2.51-1.49
		c0.02-2.68,0.3199-5.35,0.45-8.02C1022.37,819.52,1018.6799,817.34,1019.7,813.16z"/>
	<path d="M1707.72,869.28c3.23-0.95,6.3401,0.43,9.26,1.74c2.13,1.04,4.5601,1.04,6.78,1.91c3.67,2.67,7.96,4.53,10.91,8.12
		c0.0599,0.54,0.1699,1.63,0.22,2.17c1.91,1.3701,3.78,2.82,5.74,4.17c1.09,1.5,1.97,3.15,2.49,4.97c-1.11,0.69-2.2,1.4-3.26,2.13
		c-0.84-0.01-2.53-0.03-3.38-0.04c3.17,1.84,6.85,2.55,10.49,2.75c4.38,0.15,8.5801,1.84,13.01,1.63c4.61-0.17,9.97,0.47,13.28,4.01
		c2.89,4.85,3.74,10.81,2.28,16.24c-2.86,0.48-6,1.89-8.73,0.31c-5.78-3.11-12.29-4.29-18.2201-7.01
		c-3.6799-1.53-7.6599-0.21-10.9,1.71c0.4701,0.27,1.42,0.81,1.89,1.08c-0.0299,1.93,0.1901,3.88,0.0701,5.83
		c-1.35,2.56-2.7101,5.25-2.1801,8.26c-1.0599,0.48-2.11,0.97-3.13,1.47c0,1.02,0.01,2.04,0.05,3.08
		c-0.55,1.18-1.0601,2.37-1.52,3.59c-0.85,0.46-1.66,0.94-2.46,1.43c-2.39,4.81,0.65,11.32-4.12,14.99
		c1.01,2.48,0.33,4.88-1.9501,6.32c-0.14,1.86-0.1899,3.75-0.22,5.63c-0.7-0.2-2.08-0.59-2.78-0.79c-0.33,2.27-0.62,4.57-0.89,6.86
		c-1.99,1.6299-2.73,3.93-1.7899,6.4c-1.01,0.27-2,0.55-2.9601,0.85c-0.1699,2.86-1,5.62-1.71,8.39c-2.63,1.54-5.61,2.26-8.61,2.57
		c0.0699,0.62,0.1899,1.84,0.25,2.46c-1.96-0.11-3.86-0.42-5.72-0.89c-0.11-0.6-0.3301-1.8-0.4401-2.4
		c-2.9299-5.3-2.2899-11.5099-3.65-17.1899c0.6801-6.15-1.1499-12.2-2.37-18.1801c0.02-3.97-0.6899-8.0699,0.55-11.93
		c0.95-2.03-1.14-3.86-0.89-5.9c0.3101-3.66,0.74-7.39,1.8101-10.9c1.8999-2.73,4.35-5.04,5.99-7.96
		c0.4299-2.08,1.4299-3.97,1.9199-6.02c-0.0299-1.84-2.08-2.7-3.4199-3.48c-4.4-1.91-8.9301-3.56-13-6.12
		c-2.79-2.32-8.15-0.09-9.3101-4.52c1.15-1.94,2.61-3.68,3.88-5.55c6.0601-2.05,12.98-0.45,18.67-3.79c2.6799-1.5,3.24-4.7,3.35-7.5
		c-1.65-1.39-3.33-2.72-5.09-3.91c0.61-2.48,3.1899-2.03,5.1899-2.26c1.1901-0.82,2.38-1.65,3.61-2.44
		C1706.96,870.99,1707.47,869.85,1707.72,869.28z"/>
	<path d="M869.8301,1006.19c-0.49-1.43-1.3801-2.79-1.3601-4.32c0.99-0.59,2.01-1.13,3.0601-1.63
		c0.1299-5.4-1.6201-11.08-5.4399-15.01c-6.26,0.24-12.4501-0.78-18.6802-1.12c-0.0798-0.47-0.23-1.41-0.3099-1.87
		c2.9501-0.47,5.91-0.94,8.89-1.19c0.1899-0.47,0.5801-1.41,0.77-1.88c-0.36-0.42-1.0801-1.25-1.4399-1.67
		c1.24-1.42,1.49-3.24,1.72-5.02c-1.8101-1.09-3.6201-2.16-5.5801-2.93c-0.3-0.39-0.8999-1.18-1.2-1.57
		c-2.95-0.81-6.48-2.11-6.88-5.61c2-3.89,4.73-7.39,6.65-11.35c0.1899-3.31,0.53-6.6,0.6299-9.91c2.3901-2.27,2.8701-5.58,4.03-8.51
		c0.66-0.98,1.29-1.97,1.9301-2.95c0.98-0.64,1.9601-1.3,2.88-2.03c1.78-1.65,3.73-3.12,5.76-4.45
		c-0.28-1.76,0.4099-3.93-0.9399-5.32c-2.49-1.8-5.4301-3.11-8.52-3.3c-3.6901-0.08-6.8601,2-10.0801,3.51
		c-0.29,0.37-0.8799,1.11-1.1699,1.49c-2.1801,1.02-4.3101,2.15-6.5,3.15c-1.0901,1.8-2.8301,2.8-4.9,2.98
		c-2.17,0.02-2.51,2.44-3.39,3.93c-0.5601-0.13-1.6899-0.38-2.25-0.5c-1.0601,1.7-2.16,3.39-3.3,5.05
		c-1.4299,0.8701-2.6499,2.01-2.8199,3.81c-0.5499-0.17-1.64-0.49-2.1901-0.65c-0.22,0.44-0.6499,1.33-0.8599,1.77
		c-2.3601,1.47-3.8,3.86-5.0901,6.24c-0.46,0.24-1.37,0.72-1.8201,0.96c-1.4399,2.19-3.0399,4.32-3.8999,6.83
		c-0.97,4.92-0.8701,9.96-0.3101,14.92c-3.22,1.67-3.75,5.44-2.1799,8.4901c-2.1101-0.44-4.04,0.45-5.9401,1.2
		c-5.5199,2.19-11.62,0.81-17.21,2.72c-0.77,1.69-2.84,3.26-2.5499,5.21c1.6799,3.79,6.48,1.59,9.2699,3.69
		c3.39,2.37,6.66,4.94,10.4701,6.66c-0.9102,3.76-1.49,7.67-3.1001,11.2c1.01,0.44,2.6799,1.79,1.27,2.87
		c-1.6799,1.27-3.25,2.95-5.28,3.62c-5.37-0.15-10.76-1.65-16.11-0.56c-3.1901,1.15-5.63,3.68-7.9,6.1
		c1.29,0.91,2.5901,1.82,3.9,2.75c2.9301,0.41,5.9501,0.87,8.4801,2.5601c4.1399,2.62,9.0999,3.35,13.3499,5.7799
		c8.67,4.62,18.51,7.4501,28.3701,6.91c5.3799,0.28,9.8499,3.5701,14.7999,5.3201c5.54,1.9399,10.34,5.8199,16.33,6.47
		c-2.6699-4.3401-7.5999-6.01-11.51-8.88c-0.7899-0.74-2.5399-2.39-0.5399-2.75c9.0699,0.25,17.33,7.6,26.6,4.0499
		c-0.5801-2.5199-0.5701-5.6499-3.09-7.09c-5.26-4.5599-12.64-3.53-18.88-5.62c-6.0901-1.09-11.6101-4.5-17.87-4.63
		c-3.66-0.2-7.3199-1.05-10.4701-2.97c1.3601-1.12,2.4001-3.49,4.54-2.84c4.7,0.69,9.3101,1.91,14.01,2.7
		c-0.75-3.71-1.28-7.45-1.83-11.18c3.0399-0.74,5.7699,1.13,8.64,1.83c5.79,2.54,11.34,5.93,17.52,7.44
		c-1.55-3.82-4.98-6.33-8.1401-8.73c-0.5-1.79-1.0299-3.59-1.51-5.35C857.23,1004.13,863.71,1010.3,869.8301,1006.19z"/>
	<path d="M472,921.7c1.61-0.35,3.19-0.82,4.76-1.32c2.21,1.66,4.51,3.2,6.92,4.57c0.05,0.69,0.14,2.05,0.18,2.73
		c1.22-0.26,2.44-0.5,3.66-0.73c1.79,5.03,5.58,9.42,6.11,14.81c0.71,0.23,1.43,0.48,2.16,0.76c1.02,2.24,2.7,4.17,3.62,6.46
		c-0.15,2.15,0.73,4.05,1.93,5.79c0.54,0.21,1.64,0.64,2.18,0.85c1.6,2.55,0.73,5.46,1.03,8.22c2.04,3.34,4.62,6.37,6.25,9.97
		c1.74,2.4,0.68,5.28,0.06,7.86c-2.17,0.41-4.33,0.86-6.49,1.29c-0.05,0.43-0.16,1.3-0.21,1.73c3.42,1.64,6.95,3.35,10.83,3.5
		c4.71,0.33,9.21,2.18,13.98,1.99c4.71-0.09,10.0601,1.54,12.52,5.87c-0.19,3.3,0.88,6.46,1.52,9.66
		c-4.68,3.0099-10.71,1.46-14.93-1.64c-5.95-1.14-11.84-3.19-17.99-2.72c0.99,3.88,2.33,7.75,1.68,11.84
		c-2.39,1.6-0.73,4.52-1.31,6.83c-0.87,1.93-2.51,3.37-3.56,5.2c-0.18,1.63,0.43,3.22,0.72,4.8201
		c-0.58,0.48-1.74,1.4299-2.32,1.9099c0.84,4.6001-0.5,9.91-3.9,13.24c-0.12,1-0.22,2.01-0.3,3.04c-0.45,0.46-1.33,1.36-1.78,1.8101
		c-0.08,1.0299-0.15,2.0699-0.22,3.13c-1.65,2.0599-3.39,4.0699-4.89,6.2699c-6.46,3.3201-15.7,1.2001-18.92-5.6899
		c0.34-0.34,1.03-1.01,1.38-1.34c-3.43-5.0801-4.32-11.4701-4.12-17.4501c-0.5-2.95-2.01-5.87-1.03-8.89
		c1-4.0099,0.83-8.16-0.14-12.15c0.66-3.29,0.94-6.67,2.07-9.85c2.63-1.97,2.53-5.42,3.35-8.3c-4.11-1.54-7.89-3.83-10.82-7.13
		c-1.46-0.56-2.86-1.25-4.18-2.05c-3.06-0.85-6.27-1.52-8.77-3.6c0.53-1.06,1.08-2.08,1.63-3.11c1.04-0.85,2.07-1.69,3.11-2.53
		c4.77,0.06,9.53-0.2599,14.31-0.22c2.07,0.16,2.78-2.2,3.91-3.48c-0.65-0.46-1.3-0.9-1.94-1.32c0.7-0.81,1.4-1.61,2.11-2.4
		c-1.99-0.87-4.02-1.62-6.15-2.04c0.69-0.54,1.38-1.07,2.07-1.59c-1.35-2.6-1.58-5.65-3.66-7.85c-1.6-3.57-1.52-7.65-1.89-11.48
		c-0.23-2.1299,1.55-3.85,1.64-5.9399c0.29-2.76,0.39-5.53,0.75-8.27c0.39-0.44,1.17-1.31,1.55-1.75
		C469.82,927.79,470.7,924.62,472,921.7z"/>
</g>
</svg>
